<svg width="25" height="25" viewBox="0 0 25 25" fill="none" xmlns="http://www.w3.org/2000/svg">
  <mask id="path-1-outside-1_46_1888" maskUnits="userSpaceOnUse" x="0.5625" y="1.50824" width="24" height="22" fill="black">
    <rect fill="white" x="0.5625" y="1.50824" width="24" height="22" />
    <path d="M22.8599 2.88021C22.6353 2.69404 22.3645 2.57212 22.0762 2.52737C21.7879 2.48262 21.4929 2.51672 21.2224 2.62605L2.55887 10.1604C2.25727 10.2844 2.00051 10.4971 1.82265 10.7704C1.6448 11.0437 1.55427 11.3646 1.56309 11.6905C1.5719 12.0165 1.67964 12.332 1.87201 12.5953C2.06437 12.8586 2.33226 13.0571 2.64012 13.1646L6.6672 14.5625L8.84949 21.7771C8.85366 21.7917 8.8672 21.801 8.87345 21.8146C8.89593 21.8721 8.92877 21.9251 8.97032 21.9708C9.03347 22.0414 9.11497 22.0929 9.20574 22.1198C9.21616 22.124 9.22345 22.1333 9.23387 22.1354H9.24012L9.24324 22.1365C9.32383 22.1538 9.40757 22.1495 9.48595 22.124C9.49428 22.1219 9.50262 22.1219 9.51199 22.1188C9.58725 22.0924 9.65535 22.0489 9.71095 21.9917C9.7172 21.9844 9.72762 21.9833 9.73387 21.9771L12.8724 18.5125L17.4526 22.0594C17.7307 22.2771 18.0735 22.3948 18.4266 22.3948C19.1912 22.3948 19.8505 21.8594 20.0078 21.1125L23.4057 4.42709C23.4634 4.14383 23.443 3.85024 23.3469 3.57763C23.2508 3.30503 23.0825 3.06362 22.8599 2.87917M9.98803 15.9323L9.25157 19.5125L7.71512 14.4313L15.3349 10.4625L10.1297 15.6688C10.0576 15.7408 10.0083 15.8324 9.98803 15.9323ZM18.987 20.9031C18.9674 20.9976 18.9239 21.0854 18.8606 21.1582C18.7973 21.231 18.7164 21.2863 18.6255 21.3188C18.5369 21.3529 18.4409 21.3633 18.3471 21.3491C18.2532 21.3348 18.1646 21.2964 18.0901 21.2375L13.1287 17.3948C13.0249 17.3147 12.8949 17.2767 12.7643 17.2883C12.6338 17.2999 12.5125 17.3602 12.4245 17.4573L10.2401 19.8646L10.9755 16.2948L18.4641 8.80521C18.5518 8.71723 18.6051 8.60079 18.6145 8.47692C18.6239 8.35305 18.5887 8.2299 18.5153 8.12969C18.4419 8.02949 18.3351 7.95883 18.2141 7.93046C18.0932 7.9021 17.9661 7.91789 17.8557 7.975L7.06095 13.5979L2.98074 12.1792C2.87256 12.1434 2.7782 12.0749 2.7108 11.983C2.6434 11.8912 2.60632 11.7806 2.6047 11.6667C2.59951 11.5517 2.63021 11.4381 2.69256 11.3414C2.7549 11.2447 2.84579 11.1698 2.95262 11.1271L21.613 3.59271C21.7087 3.55208 21.8137 3.53894 21.9164 3.55477C22.0191 3.5706 22.1153 3.61476 22.1943 3.6823C22.2728 3.74583 22.3321 3.82993 22.3656 3.92521C22.3991 4.02049 22.4054 4.12321 22.3839 4.22188L18.987 20.9031Z" />
  </mask>
  <path d="M22.8599 2.88021C22.6353 2.69404 22.3645 2.57212 22.0762 2.52737C21.7879 2.48262 21.4929 2.51672 21.2224 2.62605L2.55887 10.1604C2.25727 10.2844 2.00051 10.4971 1.82265 10.7704C1.6448 11.0437 1.55427 11.3646 1.56309 11.6905C1.5719 12.0165 1.67964 12.332 1.87201 12.5953C2.06437 12.8586 2.33226 13.0571 2.64012 13.1646L6.6672 14.5625L8.84949 21.7771C8.85366 21.7917 8.8672 21.801 8.87345 21.8146C8.89593 21.8721 8.92877 21.9251 8.97032 21.9708C9.03347 22.0414 9.11497 22.0929 9.20574 22.1198C9.21616 22.124 9.22345 22.1333 9.23387 22.1354H9.24012L9.24324 22.1365C9.32383 22.1538 9.40757 22.1495 9.48595 22.124C9.49428 22.1219 9.50262 22.1219 9.51199 22.1188C9.58725 22.0924 9.65535 22.0489 9.71095 21.9917C9.7172 21.9844 9.72762 21.9833 9.73387 21.9771L12.8724 18.5125L17.4526 22.0594C17.7307 22.2771 18.0735 22.3948 18.4266 22.3948C19.1912 22.3948 19.8505 21.8594 20.0078 21.1125L23.4057 4.42709C23.4634 4.14383 23.443 3.85024 23.3469 3.57763C23.2508 3.30503 23.0825 3.06362 22.8599 2.87917M9.98803 15.9323L9.25157 19.5125L7.71512 14.4313L15.3349 10.4625L10.1297 15.6688C10.0576 15.7408 10.0083 15.8324 9.98803 15.9323ZM18.987 20.9031C18.9674 20.9976 18.9239 21.0854 18.8606 21.1582C18.7973 21.231 18.7164 21.2863 18.6255 21.3188C18.5369 21.3529 18.4409 21.3633 18.3471 21.3491C18.2532 21.3348 18.1646 21.2964 18.0901 21.2375L13.1287 17.3948C13.0249 17.3147 12.8949 17.2767 12.7643 17.2883C12.6338 17.2999 12.5125 17.3602 12.4245 17.4573L10.2401 19.8646L10.9755 16.2948L18.4641 8.80521C18.5518 8.71723 18.6051 8.60079 18.6145 8.47692C18.6239 8.35305 18.5887 8.2299 18.5153 8.12969C18.4419 8.02949 18.3351 7.95883 18.2141 7.93046C18.0932 7.9021 17.9661 7.91789 17.8557 7.975L7.06095 13.5979L2.98074 12.1792C2.87256 12.1434 2.7782 12.0749 2.7108 11.983C2.6434 11.8912 2.60632 11.7806 2.6047 11.6667C2.59951 11.5517 2.63021 11.4381 2.69256 11.3414C2.7549 11.2447 2.84579 11.1698 2.95262 11.1271L21.613 3.59271C21.7087 3.55208 21.8137 3.53894 21.9164 3.55477C22.0191 3.5706 22.1153 3.61476 22.1943 3.6823C22.2728 3.74583 22.3321 3.82993 22.3656 3.92521C22.3991 4.02049 22.4054 4.12321 22.3839 4.22188L18.987 20.9031Z" fill="white" />
  <path d="M22.7323 3.0342C22.8173 3.10468 22.9434 3.09288 23.0139 3.00784C23.0844 2.9228 23.0726 2.79672 22.9875 2.72623L22.7323 3.0342ZM21.2224 2.62605L21.2973 2.8115L21.2974 2.81147L21.2224 2.62605ZM2.55887 10.1604L2.484 9.97496L2.48285 9.97543L2.55887 10.1604ZM2.64012 13.1646L2.57421 13.3534L2.57453 13.3535L2.64012 13.1646ZM6.6672 14.5625L6.85863 14.5046L6.82911 14.407L6.73279 14.3736L6.6672 14.5625ZM8.84949 21.7771L9.04182 21.7221L9.04092 21.7192L8.84949 21.7771ZM8.87345 21.8146L9.06008 21.7417L9.05504 21.7308L8.87345 21.8146ZM8.97032 21.9708L9.11933 21.8374L9.11834 21.8363L8.97032 21.9708ZM9.20574 22.1198L9.28002 21.9341L9.2714 21.9307L9.2625 21.928L9.20574 22.1198ZM9.23387 22.1354L9.19464 22.3315L9.21406 22.3354H9.23387V22.1354ZM9.24012 22.1354L9.30333 21.9457L9.27255 21.9354H9.24012V22.1354ZM9.24324 22.1365L9.18003 22.3262L9.19044 22.3297L9.20116 22.332L9.24324 22.1365ZM9.48595 22.124L9.43732 21.9295L9.42401 21.9338L9.48595 22.124ZM9.51199 22.1188L9.57524 22.3085L9.57821 22.3075L9.51199 22.1188ZM9.71095 21.9917L9.85462 22.1314L9.8628 22.1218L9.71095 21.9917ZM9.73387 21.9771L9.87546 22.1187L9.88209 22.1114L9.73387 21.9771ZM12.8724 18.5125L12.9949 18.3544L12.8485 18.241L12.7242 18.3782L12.8724 18.5125ZM17.4526 22.0594L17.5759 21.9019L17.5751 21.9013L17.4526 22.0594ZM20.0078 21.1125L20.2035 21.1537L20.2038 21.1524L20.0078 21.1125ZM23.4057 4.42709L23.6017 4.467L23.6017 4.46697L23.4057 4.42709ZM22.9875 2.72518C22.9025 2.6547 22.7764 2.6665 22.7059 2.75155C22.6354 2.8366 22.6472 2.96268 22.7323 3.03316L22.9875 2.72518ZM9.98803 15.9323L10.1839 15.9726L10.184 15.9722L9.98803 15.9323ZM9.25157 19.5125L9.06013 19.5704L9.44747 19.5528L9.25157 19.5125ZM7.71512 14.4313L7.62273 14.2539L7.47569 14.3305L7.52368 14.4891L7.71512 14.4313ZM15.3349 10.4625L15.4763 10.6039L15.2425 10.2851L15.3349 10.4625ZM10.1297 15.6688L10.2711 15.8102L10.2711 15.8102L10.1297 15.6688ZM18.987 20.9031L19.1828 20.9437L19.183 20.943L18.987 20.9031ZM18.6255 21.3188L18.5582 21.1304L18.5537 21.1321L18.6255 21.3188ZM18.0901 21.2375L18.2141 21.0806L18.2126 21.0794L18.0901 21.2375ZM13.1287 17.3948L13.2511 17.2367L13.2509 17.2365L13.1287 17.3948ZM12.4245 17.4573L12.5726 17.5917L12.5727 17.5916L12.4245 17.4573ZM10.2401 19.8646L10.0442 19.8242L9.89662 20.5408L10.3882 19.999L10.2401 19.8646ZM10.9755 16.2948L10.8341 16.1534L10.7917 16.1958L10.7796 16.2544L10.9755 16.2948ZM18.4641 8.80521L18.6055 8.94662L18.6057 8.9464L18.4641 8.80521ZM17.8557 7.975L17.7638 7.79739L17.7633 7.79763L17.8557 7.975ZM7.06095 13.5979L6.99526 13.7868L7.07679 13.8152L7.15334 13.7753L7.06095 13.5979ZM2.98074 12.1792L3.04643 11.9902L3.04346 11.9893L2.98074 12.1792ZM2.6047 11.6667L2.80477 11.6638L2.8045 11.6576L2.6047 11.6667ZM2.95262 11.1271L3.02685 11.3128L3.02749 11.3125L2.95262 11.1271ZM21.613 3.59271L21.6879 3.7782L21.6912 3.77679L21.613 3.59271ZM22.1943 3.6823L22.0642 3.83434L22.0685 3.83777L22.1943 3.6823ZM22.3839 4.22188L22.1884 4.17926L22.1879 4.18197L22.3839 4.22188ZM22.9875 2.72623C22.7351 2.51703 22.4308 2.38002 22.1069 2.32974L22.0455 2.725C22.2981 2.76421 22.5355 2.87105 22.7323 3.0342L22.9875 2.72623ZM22.1069 2.32974C21.7829 2.27945 21.4514 2.31777 21.1475 2.44062L21.2974 2.81147C21.5344 2.71567 21.7929 2.68579 22.0455 2.725L22.1069 2.32974ZM21.1475 2.44059L2.484 9.97496L2.63373 10.3459L21.2973 2.8115L21.1475 2.44059ZM2.48285 9.97543C2.14372 10.1148 1.85501 10.354 1.65502 10.6613L1.99028 10.8795C2.146 10.6402 2.37082 10.4539 2.63488 10.3454L2.48285 9.97543ZM1.65502 10.6613C1.45504 10.9686 1.35325 11.3294 1.36316 11.6959L1.76301 11.6851C1.7553 11.3997 1.83456 11.1188 1.99028 10.8795L1.65502 10.6613ZM1.36316 11.6959C1.37307 12.0624 1.49422 12.4173 1.71052 12.7133L2.0335 12.4773C1.86507 12.2468 1.77073 11.9705 1.76301 11.6851L1.36316 11.6959ZM1.71052 12.7133C1.92682 13.0093 2.22805 13.2326 2.57421 13.3534L2.70602 12.9758C2.43648 12.8817 2.20192 12.7078 2.0335 12.4773L1.71052 12.7133ZM2.57453 13.3535L6.60161 14.7514L6.73279 14.3736L2.7057 12.9756L2.57453 13.3535ZM6.47577 14.6204L8.65806 21.835L9.04092 21.7192L6.85863 14.5046L6.47577 14.6204ZM8.65719 21.832C8.6646 21.858 8.67529 21.8784 8.68427 21.8928C8.69277 21.9065 8.70122 21.917 8.70452 21.9212C8.71004 21.9281 8.70752 21.9249 8.70651 21.9235C8.70429 21.9205 8.69797 21.9116 8.69186 21.8984L9.05504 21.7308C9.0458 21.7108 9.03544 21.6956 9.0288 21.6866C9.02541 21.682 9.02239 21.6782 9.02048 21.6758C9.01952 21.6746 9.01861 21.6735 9.01805 21.6728C9.0174 21.672 9.01711 21.6716 9.01686 21.6713C9.01637 21.6707 9.01704 21.6715 9.01817 21.673C9.01934 21.6746 9.02145 21.6776 9.02396 21.6816C9.02903 21.6897 9.03647 21.7035 9.0418 21.7221L8.65719 21.832ZM8.68716 21.8874C8.71853 21.9677 8.76433 22.0415 8.82231 22.1053L9.11834 21.8363C9.0932 21.8087 9.07334 21.7766 9.05974 21.7418L8.68716 21.8874ZM8.82132 22.1042C8.9092 22.2024 9.02265 22.2742 9.14898 22.3116L9.2625 21.928C9.2073 21.9117 9.15773 21.8803 9.11933 21.8374L8.82132 22.1042ZM9.13146 22.3055C9.11779 22.3 9.10825 22.2941 9.10432 22.2916C9.10218 22.2902 9.09805 22.2873 9.10447 22.2918C9.10792 22.2942 9.11845 22.3017 9.13217 22.309C9.14676 22.3168 9.16789 22.3262 9.19464 22.3315L9.27309 21.9393C9.29463 21.9436 9.31095 21.951 9.32091 21.9564C9.32585 21.959 9.32959 21.9613 9.33181 21.9628C9.33395 21.9641 9.33533 21.9651 9.33513 21.965C9.33504 21.9649 9.33489 21.9648 9.33426 21.9644C9.33376 21.964 9.3328 21.9633 9.33176 21.9626C9.32968 21.9611 9.32613 21.9587 9.32181 21.9559C9.31326 21.9503 9.29889 21.9417 9.28002 21.9341L9.13146 22.3055ZM9.23387 22.3354H9.24012V21.9354H9.23387V22.3354ZM9.17691 22.3252L9.18003 22.3262L9.30645 21.9467L9.30333 21.9457L9.17691 22.3252ZM9.20116 22.332C9.31629 22.3568 9.43592 22.3506 9.54789 22.3141L9.42401 21.9338C9.37922 21.9484 9.33137 21.9509 9.28532 21.9409L9.20116 22.332ZM9.53446 22.318C9.5291 22.3193 9.5252 22.32 9.52436 22.3201C9.52394 22.3202 9.52383 22.3202 9.52463 22.3201C9.52497 22.32 9.52701 22.3197 9.52855 22.3195C9.53573 22.3184 9.55385 22.3156 9.57524 22.3085L9.44874 21.929C9.46075 21.925 9.47003 21.9238 9.46861 21.924C9.468 21.9241 9.4679 21.9241 9.46613 21.9244C9.46481 21.9246 9.46259 21.9249 9.46007 21.9253C9.45503 21.9261 9.44696 21.9276 9.43744 21.9299L9.53446 22.318ZM9.57821 22.3075C9.68265 22.2708 9.77717 22.2105 9.85434 22.1311L9.56756 21.8522C9.53353 21.8872 9.49184 21.9139 9.44578 21.93L9.57821 22.3075ZM9.8628 22.1218C9.8478 22.1393 9.8325 22.1504 9.82229 22.1568C9.81726 22.1599 9.81314 22.1621 9.81071 22.1634C9.80841 22.1646 9.80679 22.1653 9.80729 22.1651C9.80738 22.165 9.8075 22.165 9.80776 22.1649C9.80798 22.1648 9.80837 22.1646 9.80876 22.1644C9.80956 22.164 9.81086 22.1634 9.81237 22.1627C9.81532 22.1613 9.82024 22.1588 9.82603 22.1556C9.8374 22.1493 9.8562 22.1376 9.87529 22.1185L9.59244 21.8357C9.60841 21.8197 9.62356 21.8105 9.63103 21.8064C9.63486 21.8042 9.63776 21.8028 9.63866 21.8024C9.63894 21.8022 9.64013 21.8017 9.63752 21.8029C9.63506 21.8041 9.62337 21.8094 9.61029 21.8176C9.59617 21.8264 9.57723 21.8404 9.5591 21.8615L9.8628 22.1218ZM9.88209 22.1114L13.0206 18.6468L12.7242 18.3782L9.58564 21.8428L9.88209 22.1114ZM12.75 18.6706L17.3302 22.2175L17.5751 21.9013L12.9949 18.3544L12.75 18.6706ZM17.3293 22.2169C17.6428 22.4622 18.0289 22.5948 18.4266 22.5948V22.1948C18.118 22.1948 17.8187 22.0919 17.5759 21.9019L17.3293 22.2169ZM18.4266 22.5948C19.2857 22.5948 20.0267 21.9932 20.2035 21.1537L19.8121 21.0713C19.6743 21.7256 19.0966 22.1948 18.4266 22.1948V22.5948ZM20.2038 21.1524L23.6017 4.467L23.2098 4.38718L19.8118 21.0726L20.2038 21.1524ZM23.6017 4.46697C23.6666 4.14823 23.6437 3.81787 23.5355 3.51112L23.1583 3.64415C23.2424 3.88261 23.2602 4.13943 23.2098 4.38721L23.6017 4.46697ZM23.5355 3.51112C23.4274 3.20437 23.238 2.93273 22.9875 2.72518L22.7323 3.03316C22.927 3.19451 23.0742 3.40568 23.1583 3.64415L23.5355 3.51112ZM9.79214 15.892L9.05568 19.4722L9.44747 19.5528L10.1839 15.9726L9.79214 15.892ZM9.44301 19.4546L7.90656 14.3734L7.52368 14.4891L9.06013 19.5704L9.44301 19.4546ZM7.8075 14.6086L15.4273 10.6399L15.2425 10.2851L7.62273 14.2539L7.8075 14.6086ZM15.1935 10.3211L9.98826 15.5273L10.2711 15.8102L15.4763 10.6039L15.1935 10.3211ZM9.98833 15.5273C9.88846 15.6271 9.82019 15.7541 9.79205 15.8924L10.184 15.9722C10.1965 15.9108 10.2268 15.8545 10.2711 15.8102L9.98833 15.5273ZM18.7911 20.8626C18.7785 20.9235 18.7505 20.9801 18.7097 21.027L19.0115 21.2895C19.0973 21.1908 19.1563 21.0717 19.1828 20.9437L18.7911 20.8626ZM18.7097 21.027C18.6689 21.0739 18.6167 21.1095 18.5582 21.1304L18.6929 21.5071C18.816 21.4631 18.9257 21.3881 19.0115 21.2895L18.7097 21.027ZM18.5537 21.1321C18.4975 21.1537 18.4366 21.1604 18.3771 21.1513L18.3171 21.5468C18.4453 21.5663 18.5763 21.552 18.6974 21.5054L18.5537 21.1321ZM18.3771 21.1513C18.3175 21.1423 18.2614 21.1179 18.2141 21.0806L17.9661 21.3944C18.0679 21.4748 18.1888 21.5273 18.3171 21.5468L18.3771 21.1513ZM18.2126 21.0794L13.2511 17.2367L13.0062 17.5529L17.9676 21.3956L18.2126 21.0794ZM13.2509 17.2365C13.1073 17.1257 12.9273 17.073 12.7467 17.0891L12.782 17.4875C12.8624 17.4804 12.9426 17.5038 13.0064 17.5531L13.2509 17.2365ZM12.7467 17.0891C12.566 17.1051 12.3981 17.1886 12.2763 17.323L12.5727 17.5916C12.6269 17.5318 12.7016 17.4946 12.782 17.4875L12.7467 17.0891ZM12.2764 17.3229L10.092 19.7302L10.3882 19.999L12.5726 17.5917L12.2764 17.3229ZM10.436 19.9049L11.1714 16.3352L10.7796 16.2544L10.0442 19.8242L10.436 19.9049ZM11.117 16.4362L18.6055 8.94662L18.3226 8.6638L10.8341 16.1534L11.117 16.4362ZM18.6057 8.9464C18.7271 8.82463 18.801 8.66348 18.814 8.49204L18.4151 8.4618C18.4093 8.5381 18.3764 8.60983 18.3224 8.66402L18.6057 8.9464ZM18.814 8.49204C18.827 8.32061 18.7783 8.15017 18.6766 8.01148L18.354 8.24791C18.3992 8.30963 18.4209 8.38549 18.4151 8.4618L18.814 8.49204ZM18.6766 8.01148C18.575 7.8728 18.4272 7.775 18.2598 7.73574L18.1684 8.12518C18.2429 8.14265 18.3087 8.18618 18.354 8.24791L18.6766 8.01148ZM18.2598 7.73574C18.0924 7.69649 17.9165 7.71835 17.7638 7.79739L17.9477 8.15262C18.0156 8.11744 18.0939 8.1077 18.1684 8.12518L18.2598 7.73574ZM17.7633 7.79763L6.96855 13.4205L7.15334 13.7753L17.9481 8.15238L17.7633 7.79763ZM7.12663 13.409L3.04643 11.9903L2.91506 12.3681L6.99526 13.7868L7.12663 13.409ZM3.04346 11.9893C2.97476 11.9666 2.91485 11.923 2.87205 11.8647L2.54955 12.1013C2.64155 12.2267 2.77035 12.3203 2.91802 12.3691L3.04346 11.9893ZM2.87205 11.8647C2.82926 11.8064 2.80571 11.7362 2.80468 11.6638L2.40472 11.6695C2.40693 11.825 2.45755 11.976 2.54955 12.1013L2.87205 11.8647ZM2.8045 11.6576C2.80118 11.5842 2.8208 11.5115 2.86065 11.4497L2.52447 11.233C2.43963 11.3646 2.39784 11.5193 2.4049 11.6757L2.8045 11.6576ZM2.86065 11.4497C2.90049 11.388 2.95858 11.3401 3.02685 11.3128L2.87838 10.9414C2.733 10.9995 2.60931 11.1014 2.52447 11.233L2.86065 11.4497ZM3.02749 11.3125L21.6879 3.77817L21.5382 3.40726L2.87774 10.9416L3.02749 11.3125ZM21.6912 3.77679C21.7526 3.75071 21.82 3.74228 21.8859 3.75244L21.9469 3.3571C21.8074 3.33561 21.6647 3.35346 21.5348 3.40864L21.6912 3.77679ZM21.8859 3.75244C21.9518 3.76259 22.0136 3.79094 22.0643 3.83428L22.3243 3.53031C22.217 3.43859 22.0863 3.3786 21.9469 3.3571L21.8859 3.75244ZM22.0685 3.83777C22.1182 3.87798 22.1557 3.9312 22.1769 3.99151L22.5543 3.85891C22.5085 3.72865 22.4274 3.61367 22.3201 3.52682L22.0685 3.83777ZM22.1769 3.99151C22.1981 4.05181 22.2021 4.11682 22.1885 4.17927L22.5793 4.26449C22.6087 4.12959 22.6 3.98917 22.5543 3.85891L22.1769 3.99151ZM22.1879 4.18197L18.791 20.8632L19.183 20.943L22.5798 4.26179L22.1879 4.18197Z" fill="white" mask="url(#path-1-outside-1_46_1888)" />
</svg>