<svg width="25" height="25" viewBox="0 0 25 25" fill="none" xmlns="http://www.w3.org/2000/svg">
  <path d="M19.8431 5.11459C18.8881 4.14993 17.7506 3.38508 16.4969 2.86465C15.2432 2.34421 13.8984 2.07862 12.541 2.08334C6.85352 2.08334 2.2181 6.71876 2.2181 12.4063C2.2181 14.2292 2.69727 16 3.5931 17.5625L2.13477 22.9167L7.60352 21.4792C9.11393 22.3021 10.8118 22.7396 12.541 22.7396C18.2285 22.7396 22.8639 18.1042 22.8639 12.4167C22.8639 9.65626 21.791 7.06251 19.8431 5.11459ZM12.541 20.9896C10.9993 20.9896 9.48893 20.5729 8.16602 19.7917L7.85352 19.6042L4.60352 20.4583L5.4681 17.2917L5.25977 16.9688C4.40325 15.601 3.94845 14.0201 3.94727 12.4063C3.94727 7.67709 7.80143 3.82293 12.5306 3.82293C14.8223 3.82293 16.9785 4.71876 18.5931 6.34376C19.3926 7.13956 20.0261 8.08612 20.4571 9.12858C20.888 10.171 21.1077 11.2887 21.1035 12.4167C21.1243 17.1458 17.2702 20.9896 12.541 20.9896ZM17.2493 14.5729C16.9889 14.4479 15.7181 13.8229 15.4889 13.7292C15.2493 13.6458 15.0827 13.6042 14.9056 13.8542C14.7285 14.1146 14.2389 14.6979 14.0931 14.8646C13.9473 15.0417 13.791 15.0625 13.5306 14.9271C13.2702 14.8021 12.4368 14.5208 11.4577 13.6458C10.6868 12.9583 10.1764 12.1146 10.0202 11.8542C9.87435 11.5938 9.99935 11.4583 10.1348 11.3229C10.2493 11.2083 10.3952 11.0208 10.5202 10.875C10.6452 10.7292 10.6973 10.6146 10.7806 10.4479C10.8639 10.2708 10.8223 10.125 10.7598 10C10.6973 9.87501 10.1764 8.60418 9.9681 8.08334C9.75976 7.58334 9.54102 7.64584 9.38477 7.63543H8.88476C8.70768 7.63543 8.43685 7.69793 8.19727 7.95834C7.9681 8.21876 7.30143 8.84376 7.30143 10.1146C7.30143 11.3854 8.22852 12.6146 8.35352 12.7813C8.47852 12.9583 10.1764 15.5625 12.7598 16.6771C13.3743 16.9479 13.8535 17.1042 14.2285 17.2188C14.8431 17.4167 15.4056 17.3854 15.8535 17.3229C16.3535 17.25 17.3848 16.6979 17.5931 16.0938C17.8118 15.4896 17.8118 14.9792 17.7389 14.8646C17.666 14.75 17.5098 14.6979 17.2493 14.5729Z" fill="white" />
</svg>