<svg width="25" height="25" viewBox="0 0 25 25" fill="none" xmlns="http://www.w3.org/2000/svg">
<path fill-rule="evenodd" clip-rule="evenodd" d="M5.97186 2.12811C7.23957 0.867692 9.32707 1.09165 10.3885 2.5104L11.7031 4.26457C12.5677 5.41873 12.4906 7.03123 11.4646 8.05102L11.2167 8.29894C11.1887 8.40303 11.1858 8.51228 11.2083 8.61769C11.2739 9.04269 11.6292 9.94269 13.1167 11.4219C14.6042 12.901 15.5104 13.2552 15.9417 13.3219C16.0502 13.3449 16.1627 13.3417 16.2698 13.3125L16.6948 12.8896C17.6073 11.9833 19.0073 11.8135 20.1364 12.4271L22.126 13.5104C23.8312 14.4354 24.2614 16.7521 22.8656 18.1406L21.3854 19.6114C20.9187 20.075 20.2917 20.4614 19.5271 20.5333C17.6417 20.7094 13.2489 20.4844 8.63124 15.8937C4.32186 11.6083 3.49478 7.87082 3.38957 6.02915C3.33749 5.0979 3.77707 4.3104 4.33749 3.75415L5.97186 2.12811ZM9.13853 3.44686C8.6104 2.74165 7.62707 2.6854 7.0729 3.23644L5.43749 4.86144C5.09374 5.20311 4.92915 5.58019 4.94999 5.94061C5.03332 7.40415 5.69999 10.776 9.73332 14.7864C13.9646 18.9927 17.8719 19.1187 19.3823 18.9771C19.6906 18.9489 19.9969 18.7885 20.2833 18.5042L21.7625 17.0323C22.3646 16.4344 22.2323 15.3448 21.3802 14.8823L19.3906 13.8C18.8406 13.5021 18.1969 13.6 17.7969 13.9979L17.3229 14.4698L16.7708 13.9156C17.3229 14.4698 17.3219 14.4708 17.3208 14.4708L17.3198 14.4729L17.3167 14.476L17.3094 14.4823L17.2937 14.4969C17.2494 14.5373 17.2021 14.5742 17.1521 14.6073C17.0687 14.6625 16.9583 14.7239 16.8198 14.775C16.5385 14.8802 16.1656 14.9364 15.7052 14.8656C14.8021 14.7271 13.6052 14.1114 12.0146 12.5302C10.425 10.9489 9.80415 9.75936 9.66457 8.85728C9.5927 8.39686 9.64999 8.02394 9.75624 7.74269C9.81516 7.58464 9.89884 7.43696 10.0042 7.30519L10.0375 7.26873L10.0521 7.25311L10.0583 7.24686L10.0614 7.24373L10.0635 7.24165L10.3635 6.94373C10.8094 6.49894 10.8719 5.76248 10.4521 5.20103L9.13853 3.44686Z" fill="#141414"/>
</svg>
